<svg id="Capa_1" enable-background="new 0 0 497 497" height="512" viewBox="0 0 497 497" width="512" xmlns="http://www.w3.org/2000/svg"><g><path d="m433.573 350.99-110.073-33.99 143.5 180h22.5c4.142 0 7.5-3.358 7.5-7.5v-52.5c0-40.455-26.693-74.675-63.427-86.01z" fill="#ffad84"/><path d="m414.54 350.99-91.04-33.99v-48.332h-150v48.332l-110.073 33.99c-36.734 11.335-63.427 45.555-63.427 86.01v52.5c0 4.142 3.358 7.5 7.5 7.5h67.5l15-30 15 30h287l15-30 15 30h45v-60c0-40.455-22.078-74.675-52.46-86.01z" fill="#ffd4a1"/><path d="m407 452c-8.284 0-15 6.716-15 15v30h30v-30c0-8.284-6.716-15-15-15z" fill="#ffad84"/><path d="m90 452c-8.284 0-15 6.716-15 15v30h30v-30c0-8.284-6.716-15-15-15z" fill="#ffad84"/><path d="m323.5 268.668v-163.668h-150v163.668c22.833 10.48 48.232 16.332 75 16.332s52.167-5.851 75-16.332z" fill="#fe8566"/><path d="m121 30c-20.711 0-37.5 16.79-37.5 37.5 0 20.711 16.789 37.5 37.5 37.5h127.5v-75z" fill="#fe5e49"/><path d="m376 30h-127.5v75h127.5c20.711 0 37.5-16.789 37.5-37.5 0-20.71-16.789-37.5-37.5-37.5z" fill="#ff3a33"/><path d="m338.5 0-90 225c66.274 0 120-53.726 120-120v-97.5c0-4.142-3.358-7.5-7.5-7.5z" fill="#fe5e49"/><path d="m338.5 105v-105h-202.5c-4.142 0-7.5 3.358-7.5 7.5v97.5c0 66.274 53.726 120 120 120 49.706 0 90-53.726 90-120z" fill="#fe8566"/><path d="m248.5 45c-24.853 0-45 20.147-45 45l.004 30.622c.059 4.34 1.474 8.201 3.779 11.316h82.434c2.305-3.115 3.72-6.976 3.779-11.316l.004-30.622c0-24.853-20.147-45-45-45z" fill="#b53840"/><path d="m248.5 105c-18.427 0-34.258 11.081-41.217 26.939 5.198 7.025 14.939 10.239 23.979 6.484 5.308-2.205 11.131-3.423 17.238-3.423s11.93 1.218 17.238 3.423c9.039 3.755 18.781.541 23.979-6.484-6.959-15.858-22.79-26.939-41.217-26.939z" fill="#ff3a33"/><path d="m337.51 295.836c-2.96-7.738-11.633-11.611-19.369-8.651h-139.282c-7.736-2.96-16.409.914-19.369 8.651-2.959 7.737.914 16.409 8.651 19.369 25.666 9.817 52.702 14.795 80.359 14.795s54.693-4.978 80.359-14.795c7.738-2.96 11.611-11.632 8.651-19.369z" fill="#f99e49"/><path d="m248.5 300c-28.332 0-55.67-5.955-81.257-17.7-7.529-3.456-10.831-12.361-7.375-19.89s12.361-10.832 19.89-7.375c21.633 9.93 44.761 14.965 68.742 14.965s47.109-5.035 68.743-14.964c7.529-3.457 16.434-.154 19.89 7.375s.154 16.434-7.375 19.89c-25.588 11.744-52.926 17.699-81.258 17.699z" fill="#f7be48"/><path d="m403.192 262.312c-1.071-4.001-5.184-6.374-9.186-5.304l-14.489 3.883c-4.001 1.072-6.375 5.185-5.303 9.186 1.071 4.001 5.184 6.374 9.186 5.304l14.489-3.883c4.002-1.073 6.376-5.185 5.303-9.186z" fill="#ff3a33"/><path d="m381.84 225.328c-2.93-2.929-7.678-2.929-10.607 0l-10.606 10.607c-2.929 2.929-2.929 7.678 0 10.606 2.93 2.929 7.678 2.929 10.607 0l10.606-10.607c2.929-2.929 2.929-7.678 0-10.606z" fill="#ff3a33"/><path d="m117.482 260.891-14.489-3.883c-4.003-1.07-8.114 1.303-9.186 5.304s1.302 8.113 5.303 9.186l14.489 3.883c4.003 1.07 8.114-1.303 9.186-5.304 1.072-4.002-1.302-8.114-5.303-9.186z" fill="#fe5e49"/><path d="m136.374 246.541c2.929-2.929 2.929-7.678 0-10.606l-10.606-10.607c-2.93-2.929-7.678-2.929-10.607 0s-2.929 7.678 0 10.606l10.606 10.607c2.929 2.928 7.677 2.928 10.607 0z" fill="#fe5e49"/><path d="m397.89 295.831-14.489-3.883c-4.002-1.07-8.114 1.303-9.186 5.304s1.302 8.113 5.303 9.186l14.489 3.883c4.002 1.07 8.114-1.303 9.186-5.304s-1.302-8.113-5.303-9.186z" fill="#ff3a33"/><path d="m93.808 305.017c1.071 4.001 5.184 6.374 9.186 5.304l14.489-3.883c4.001-1.072 6.375-5.185 5.303-9.186-1.071-4.001-5.184-6.374-9.186-5.304l-14.489 3.883c-4.002 1.073-6.376 5.185-5.303 9.186z" fill="#fe5e49"/></g></svg>