<svg id="Capa_1" enable-background="new 0 0 496.993 496.993" height="512" viewBox="0 0 496.993 496.993" width="512" xmlns="http://www.w3.org/2000/svg"><g><path d="m453.066 43.927-234.813 3.223c-46.729 23.764-103.318 52.542-103.318 52.542l282.365 282.365 83.485-164.161c28.591-56.31 19.359-126.891-27.719-173.969z" fill="#fe5e49"/><path d="m453.066 43.927c-47.078-47.078-117.659-56.31-173.967-27.719-.001-.001-27.985 14.23-60.846 30.941 100.266 3.39 184.936 68.27 217.473 158.129 4.367 12.06 20.838 13.478 27.159 2.318l2.749-4.853c30.672-54.227 27.436-118.812-12.568-158.816z" fill="#fe8566"/><circle cx="210" cy="286.993" fill="#ffd4a1" r="210"/><circle cx="210" cy="286.993" fill="#fe5e49" r="180"/><circle cx="210" cy="286.993" fill="#fe8566" r="150"/><path d="m247.497 222.045c-7.174-4.142-16.348-1.684-20.49 5.49l-4.019 6.962c-5.773 10-20.207 10-25.981 0l-4.019-6.962c-4.142-7.174-13.316-9.632-20.49-5.49-7.175 4.142-9.633 13.316-5.491 20.49l4.019 6.962c5.773 10-1.443 22.5-12.99 22.5h-8.039c-8.284 0-15 6.716-15 15s6.716 15 15 15h8.039c11.547 0 18.764 12.5 12.99 22.5l-4.019 6.962c-4.142 7.174-1.684 16.348 5.49 20.49s16.348 1.684 20.49-5.49l4.019-6.962c5.773-10 20.207-10 25.981 0l4.019 6.962c4.142 7.174 13.316 9.632 20.49 5.49 7.175-4.142 9.633-13.316 5.491-20.49l-4.019-6.962c-5.773-10 1.443-22.5 12.99-22.5h8.039c8.284 0 15-6.716 15-15s-6.716-15-15-15h-8.039c-11.547 0-18.764-12.5-12.99-22.5l4.02-6.962c4.141-7.174 1.683-16.348-5.491-20.49z" fill="#b53840"/><circle cx="209.997" cy="286.997" fill="#ff3a33" r="45"/><circle cx="209.997" cy="286.997" fill="#fef77d" r="15"/></g></svg>