<svg id="Capa_1" enable-background="new 0 0 500.74 500.74" height="512" viewBox="0 0 500.74 500.74" width="512" xmlns="http://www.w3.org/2000/svg"><g><path d="m435.443 322.86-110.073-33.99 143.5 210h22.5c4.142 0 7.5-3.358 7.5-7.5v-82.5c0-40.455-26.693-74.674-63.427-86.01z" fill="#ffad84"/><path d="m416.41 322.86-91.04-33.99v-182h-150v182l-110.073 33.99c-36.733 11.336-63.427 45.555-63.427 86.01v82.5c0 4.142 3.358 7.5 7.5 7.5h67.5l15-30 15 30h287l15-30 15 30h45v-90c0-40.455-22.077-74.674-52.46-86.01z" fill="#ffd4a1"/><g fill="#ffad84"><path d="m408.87 423.87c-8.284 0-15 6.716-15 15v60h30v-60c0-8.284-6.716-15-15-15z"/><path d="m91.87 423.87c-8.284 0-15 6.716-15 15v60h30v-60c0-8.284-6.716-15-15-15z"/><path d="m122.87 31.87c-20.711 0-37.5 16.79-37.5 37.5 0 20.711 16.789 37.5 37.5 37.5h127.5v-75z"/></g><path d="m377.87 31.87h-127.5v75h127.5c20.711 0 37.5-16.789 37.5-37.5 0-20.71-16.789-37.5-37.5-37.5z" fill="#fe8566"/><path d="m340.37 1.87-90 225c66.274 0 120-53.726 120-120v-97.5c0-4.142-3.358-7.5-7.5-7.5z" fill="#ffad84"/><path d="m340.37 106.87v-105h-202.5c-4.142 0-7.5 3.358-7.5 7.5v97.5c0 66.274 53.726 120 120 120 49.706 0 90-53.726 90-120z" fill="#ffd4a1"/><path d="m250.37 46.87c-24.853 0-45 20.147-45 45l.004 30.622c.059 4.34 1.474 8.201 3.779 11.316h82.434c2.305-3.115 3.72-6.976 3.779-11.316l.004-30.622c0-24.853-20.147-45-45-45z" fill="#ff3a33"/><path d="m250.37 106.87c-18.427 0-34.258 11.081-41.217 26.939 5.198 7.025 14.939 10.239 23.979 6.484 5.309-2.205 11.131-3.423 17.238-3.423s11.93 1.218 17.238 3.423c9.039 3.755 18.781.541 23.979-6.484-6.959-15.858-22.79-26.939-41.217-26.939z" fill="#fe5e49"/><path d="m460.226 193.389c6.213-10.762 2.526-24.522-8.236-30.736s-24.522-2.526-30.736 8.236l-7.5 12.99-33.481-2.01 18.481 27.99-7.5 12.99c-6.213 10.762-2.526 24.522 8.236 30.736 10.762 6.213 24.522 2.526 30.736-8.236 14.349 8.284 32.696 3.368 40.981-10.981s3.368-32.694-10.981-40.979z" fill="#adf2f5"/><path d="m70.514 245.351c6.213 10.762 19.974 14.449 30.736 8.236s14.449-19.974 8.236-30.736l-7.5-12.99 18.481-27.99-33.481 2.01-7.5-12.99c-6.213-10.762-19.974-14.449-30.736-8.236s-14.449 19.974-8.236 30.736c-14.349 8.284-19.265 26.632-10.981 40.981s26.633 19.263 40.981 10.979z" fill="#d6f9fa"/><circle cx="466.99" cy="136.673" fill="#98d3f3" r="7.5"/><circle cx="493.24" cy="182.139" fill="#83b3f1" r="7.5"/><circle cx="436.99" cy="279.567" fill="#98d3f3" r="7.5"/><circle cx="63.75" cy="279.567" fill="#adf2f5" r="7.5"/><circle cx="33.75" cy="136.673" fill="#adf2f5" r="7.5"/><circle cx="7.5" cy="182.139" fill="#98d3f3" r="7.5"/></g></svg>