<svg id="Capa_1" enable-background="new 0 0 497 497" height="512" viewBox="0 0 497 497" width="512" xmlns="http://www.w3.org/2000/svg"><g><path d="m433.573 290.99-110.073-33.99 143.5 240h22.5c4.142 0 7.5-3.358 7.5-7.5v-112.5c0-40.455-26.693-74.675-63.427-86.01z" fill="#ffad84"/><path d="m414.54 290.99-91.04-33.99v-182h-150v182l-110.073 33.99c-36.734 11.335-63.427 45.554-63.427 86.01v112.5c0 4.142 3.358 7.5 7.5 7.5h67.5l15-60 15 60h287l15-60 15 60h45v-120c0-40.456-22.078-74.675-52.46-86.01z" fill="#ffd4a1"/><g fill="#ffad84"><path d="m407 392c-8.284 0-15 6.716-15 15v90h30v-90c0-8.284-6.716-15-15-15z"/><path d="m90 392c-8.284 0-15 6.716-15 15v90h30v-90c0-8.284-6.716-15-15-15z"/><path d="m121 0c-20.711 0-37.5 16.79-37.5 37.5 0 20.711 16.789 37.5 37.5 37.5h127.5v-75z"/></g><path d="m376 0h-127.5v75h127.5c20.711 0 37.5-16.789 37.5-37.5 0-20.71-16.789-37.5-37.5-37.5z" fill="#fe8566"/><path d="m338.5 0-90 195c66.274 0 120-53.726 120-120v-75z" fill="#ffad84"/><path d="m338.5 75v-75h-210v75c0 66.274 53.726 120 120 120 49.706 0 90-53.726 90-120z" fill="#ffd4a1"/><path d="m248.5 45c-24.853 0-45 20.147-45 45l.004.622c.059 4.34 1.474 8.201 3.779 11.316h82.434c2.305-3.115 3.72-6.976 3.779-11.316l.004-.622c0-24.853-20.147-45-45-45z" fill="#ff3a33"/><path d="m248.5 75c-18.427 0-34.258 11.081-41.217 26.939 5.198 7.025 14.939 10.239 23.979 6.484 5.308-2.205 11.131-3.423 17.238-3.423s11.93 1.218 17.238 3.423c9.039 3.755 18.781.541 23.979-6.484-6.959-15.858-22.79-26.939-41.217-26.939z" fill="#fe5e49"/><circle cx="248.5" cy="407" fill="#fe8566" r="60"/><path d="m248.5 377-15 32.163 15 27.837c16.569 0 30-13.431 30-30s-13.431-30-30-30z" fill="#ff3a33"/><path d="m218.5 407c0 16.569 13.431 30 30 30v-60c-16.569 0-30 13.431-30 30z" fill="#fe5e49"/><path d="m158.5 414.5h-15c-4.142 0-7.5-3.358-7.5-7.5s3.358-7.5 7.5-7.5h15c4.142 0 7.5 3.358 7.5 7.5s-3.358 7.5-7.5 7.5z" fill="#fe5e49"/><path d="m353.5 414.5h-15c-4.142 0-7.5-3.358-7.5-7.5s3.358-7.5 7.5-7.5h15c4.142 0 7.5 3.358 7.5 7.5s-3.358 7.5-7.5 7.5z" fill="#ff3a33"/><path d="m168.221 448.371-13.858 5.74c-3.827 1.585-8.214-.232-9.799-4.059s.232-8.214 4.059-9.799l13.858-5.74c3.827-1.585 8.214.232 9.799 4.059s-.232 8.213-4.059 9.799z" fill="#fe5e49"/><path d="m348.377 373.747-13.858 5.74c-3.827 1.585-8.214-.232-9.799-4.059s.232-8.214 4.059-9.799l13.858-5.74c3.827-1.585 8.214.232 9.799 4.059 1.586 3.827-.232 8.214-4.059 9.799z" fill="#ff3a33"/><path d="m168.221 365.629-13.858-5.74c-3.827-1.585-8.214.232-9.799 4.059s.232 8.214 4.059 9.799l13.858 5.74c3.827 1.585 8.214-.232 9.799-4.059s-.232-8.213-4.059-9.799z" fill="#fe5e49"/><path d="m348.377 440.253-13.858-5.74c-3.827-1.585-8.214.232-9.799 4.059s.232 8.214 4.059 9.799l13.858 5.74c3.827 1.585 8.214-.232 9.799-4.059 1.586-3.827-.232-8.214-4.059-9.799z" fill="#ff3a33"/></g></svg>