<svg id="Capa_1" enable-background="new 0 0 497 497" height="512" viewBox="0 0 497 497" width="512" xmlns="http://www.w3.org/2000/svg"><g><g fill="#fe5e49"><path d="m159.008 30h178.983v15h-178.983z"/><path d="m173.882 60h149.235v15h-149.235z"/><path d="m159.008 226h178.988v15h-178.988z"/><path d="m173.882 196h149.224v15h-149.224z"/><path d="m173.882 286h149.235v15h-149.235z"/><path d="m159.008 256h178.983v15h-178.983z"/><path d="m173.883 422h149.222v15h-149.222z"/><path d="m159.008 452h178.988v15h-178.988z"/></g><path d="m467 218.5c0-12.426-10.074-22.5-22.5-22.5s-22.5 10.074-22.5 22.5v15l-30 15 30 15v15c0 12.426 10.074 22.5 22.5 22.5s22.5-10.074 22.5-22.5c16.569 0 30-13.431 30-30s-13.431-30-30-30z" fill="#adf2f5"/><path d="m30 218.5c0-12.426 10.074-22.5 22.5-22.5s22.5 10.074 22.5 22.5v15l30 15-30 15v15c0 12.426-10.074 22.5-22.5 22.5s-22.5-10.074-22.5-22.5c-16.569 0-30-13.431-30-30s13.431-30 30-30z" fill="#d6f9fa"/><path d="m269.632 122.156c-3.093-1.939-6.186-3.86-9.265-5.772-50.005-31.047-80.367-52.859-80.367-93.884 0-12.426-10.073-22.5-22.5-22.5s-22.5 10.074-22.5 22.5c0 31.44 11.469 58.565 35.061 82.924 16.572 17.112 36.948 30.661 57.307 43.42 6.957-4.542 14.063-8.955 21.132-13.344s14.175-8.802 21.132-13.344z" fill="#fe8566"/><path d="m260.367 342.384c-50.005-31.047-80.367-52.859-80.367-93.884h-45c0 31.44 11.469 58.565 35.061 82.924 16.572 17.112 36.948 30.661 57.307 43.42 6.957-4.542 14.063-8.955 21.132-13.344s14.175-8.802 21.132-13.344c-3.093-1.938-6.186-3.86-9.265-5.772z" fill="#ffad84"/><path d="m326.939 391.576c-3.72-3.841-7.639-7.494-11.699-11.007h-39.669v25.92c26.361 19.766 41.429 39.126 41.429 68.011 0 12.426 10.073 22.5 22.5 22.5s22.5-10.074 22.5-22.5c0-31.44-11.469-58.565-35.061-82.924z" fill="#ffad84"/><path d="m269.632 348.156c-6.957 4.542-14.063 8.955-21.132 13.344s-14.176 8.802-21.132 13.344c3.093 1.939 6.186 3.86 9.265 5.772 14.798 9.188 27.859 17.566 38.938 25.874.212-.131.412-.258.625-.39 13.019-8.083 26.265-16.32 39.044-25.531-14.027-12.139-29.819-22.518-45.608-32.413z" fill="#fc7e49"/><path d="m326.939 165.576c-3.72-3.841-7.639-7.494-11.699-11.007h-39.668v25.921c26.36 19.765 41.428 39.126 41.428 68.01 0 41.025-30.362 62.837-80.369 93.885-23.343 14.493-47.48 29.479-66.57 49.191-23.592 24.359-35.061 51.484-35.061 82.924 0 12.426 10.073 22.5 22.5 22.5s22.5-10.074 22.5-22.5c0-41.025 30.362-62.837 80.369-93.885 23.343-14.493 47.48-29.479 66.57-49.191 23.592-24.359 35.061-51.484 35.061-82.924s-11.469-58.565-35.061-82.924z" fill="#fe8566"/><path d="m315.24 154.569c-14.027-12.139-29.819-22.518-45.608-32.413-6.957 4.542-14.063 8.955-21.132 13.344s-14.175 8.802-21.132 13.344c3.093 1.938 6.186 3.86 9.265 5.772 14.798 9.188 27.859 17.566 38.939 25.874.212-.132.413-.258.625-.39 13.018-8.084 26.264-16.32 39.043-25.531z" fill="#fe5e49"/><path d="m339.5 0c-12.427 0-22.5 10.074-22.5 22.5 0 41.025-30.362 62.837-80.369 93.885-23.343 14.493-47.48 29.479-66.57 49.191-23.592 24.359-35.061 51.484-35.061 82.924h45c0-41.025 30.362-62.837 80.369-93.885 23.343-14.493 47.48-29.479 66.57-49.191 23.592-24.359 35.061-51.484 35.061-82.924 0-12.426-10.073-22.5-22.5-22.5z" fill="#ffad84"/></g></svg>