<svg id="Capa_1" enable-background="new 0 0 504.5 504.5" height="512" viewBox="0 0 504.5 504.5" width="512" xmlns="http://www.w3.org/2000/svg"><g><path d="m3.75 37.5v225l135-28z" fill="#ffd4a1"/><path d="m138.75 88.171-85.462-73.424c-5.249-4.513-12.072-7.247-19.538-7.247-16.569 0-30 13.431-30 30 0 107.696 87.304 195 195 195z" fill="#f7be48"/><path d="m500.75 37.5v225l-135-28z" fill="#ffd4a1"/><path d="m365.75 88.171 85.462-73.424c5.25-4.513 12.072-7.247 19.538-7.247 16.569 0 30 13.431 30 30 0 107.696-87.304 195-195 195z" fill="#f99e49"/><path d="m320.75 82.5h-30l-38.5 422c17.278 0 33.795-3.251 48.981-9.166l84.827-33.055c67.123-26.147 114.692-91.405 114.692-167.779v-32c0-99.411-80.589-180-180-180z" fill="#fc7e49"/><path d="m369.904 462.278c59.02-26.147 100.846-91.404 100.846-167.778v-32c0-99.411-80.589-180-180-180h-107c-99.411 0-180 80.589-180 180v32c0 76.374 47.569 141.632 114.693 167.778l84.827 33.055c15.185 5.915 31.703 9.166 48.981 9.166 15.192 0 29.715-3.251 43.067-9.166z" fill="#f99e49"/><path d="m252.25 384.5c0 24.853-20.147 45-45 45 0 24.853 20.147 45 45 45s45-20.147 45-45c-24.853 0-45-20.147-45-45z" fill="#ffd4a1"/><path d="m117.25 261.499c-16.569 0-30 13.431-30 30 0 16.568 13.431 30 30 30h60c0-33.137-26.863-60-60-60z" fill="#f4de48"/><path d="m387.25 261.499c-6.153 0-12.087.93-17.675 2.65l-12.325 57.35h30c16.569 0 30-13.431 30-30s-13.431-30-30-30z" fill="#f7be48"/><path d="m387.25 291.499c0-12.174-7.256-22.647-17.675-27.35-24.509 7.545-42.325 30.365-42.325 57.35h30c16.569 0 30-13.431 30-30z" fill="#f4de48"/><path d="m297.25 422c-20.678 0-37.5-16.822-37.5-37.5v-15h-15v15c0 20.678-16.822 37.5-37.5 37.5-4.142 0-7.5 3.358-7.5 7.5s3.358 7.5 7.5 7.5c19.074 0 35.805-10.226 45-25.481 9.195 15.255 25.926 25.481 45 25.481 4.142 0 7.5-3.358 7.5-7.5s-3.358-7.5-7.5-7.5z" fill="#fc7e49"/><path d="m252.25 30c-4.142 0-7.5-3.358-7.5-7.5v-15c0-4.142 3.358-7.5 7.5-7.5s7.5 3.358 7.5 7.5v15c0 4.142-3.358 7.5-7.5 7.5z" fill="#f4de48"/><path d="m217.495 29.803-7.5-12.99c-2.071-3.587-6.659-4.816-10.245-2.745-3.587 2.071-4.816 6.658-2.745 10.245l7.5 12.99c2.071 3.587 6.659 4.816 10.245 2.745 3.587-2.071 4.816-6.658 2.745-10.245z" fill="#f4de48"/><path d="m287.005 29.803 7.5-12.99c2.071-3.587 6.659-4.816 10.245-2.745 3.587 2.071 4.816 6.658 2.745 10.245l-7.5 12.99c-2.071 3.587-6.659 4.816-10.245 2.745-3.587-2.071-4.816-6.658-2.745-10.245z" fill="#f4de48"/><g fill="#fc7e49"><path d="m222.25 239c-4.142 0-7.5-3.358-7.5-7.5v-15c0-4.142 3.358-7.5 7.5-7.5s7.5 3.358 7.5 7.5v15c0 4.142-3.358 7.5-7.5 7.5z"/><path d="m282.25 239c-4.142 0-7.5-3.358-7.5-7.5v-15c0-4.142 3.358-7.5 7.5-7.5s7.5 3.358 7.5 7.5v15c0 4.142-3.358 7.5-7.5 7.5z"/><path d="m252.25 284c-4.142 0-7.5-3.358-7.5-7.5v-15c0-4.142 3.358-7.5 7.5-7.5s7.5 3.358 7.5 7.5v15c0 4.142-3.358 7.5-7.5 7.5z"/></g><path d="m269.75 349.5h-35c-11.046 0-20 8.954-20 20l24.268 11.925c8.345 4.101 18.12 4.101 26.465 0l24.267-11.925c0-11.046-8.954-20-20-20z" fill="#fe5e49"/></g></svg>