<svg id="Capa_1" enable-background="new 0 0 497 497" height="512" viewBox="0 0 497 497" width="512" xmlns="http://www.w3.org/2000/svg"><g><path d="m160.641 116.542c-32.938-43.826-99.936-39.771-127.348 7.708-27.412 47.479 2.575 107.529 56.999 114.141l19.757 2.4 62.55-108.339z" fill="#f4de48"/><path d="m59.369 139.305c-24.373 42.215 2.29 95.607 50.679 101.486l63.452 7.709 37.5-64.952-38.402-51.096c-29.287-38.968-88.857-35.362-113.229 6.853z" fill="#fef77d"/><path d="m128.919 179.46c2.783 27.838 18.475 53.968 44.581 69.04l37.5-64.952c-26.106-15.072-56.581-15.597-82.081-4.088z" fill="#928bff"/><path d="m90.292 258.609c-54.424 6.612-84.411 66.662-56.999 114.14 27.412 47.479 94.41 51.534 127.348 7.708l11.957-15.91-62.55-108.339z" fill="#f7be48"/><path d="m59.368 357.695c24.373 42.215 83.943 45.821 113.229 6.853l38.403-51.096-37.5-64.952-63.452 7.709c-48.39 5.879-75.052 59.271-50.68 101.486z" fill="#f4de48"/><path d="m128.919 317.54c25.5 11.509 55.975 10.984 82.081-4.088l-37.5-64.952c-26.106 15.072-41.798 41.202-44.581 69.04z" fill="#83b3f1"/><path d="m178.151 390.567c-21.486 50.438 15.525 106.433 70.349 106.433s91.835-55.994 70.349-106.433l-7.8-18.31h-125.099z" fill="#f4de48"/><path d="m248.5 466.89c48.746 0 81.653-49.786 62.55-94.633l-25.05-58.805h-75l-25.05 58.805c-19.103 44.847 13.804 94.633 62.55 94.633z" fill="#fef77d"/><path d="m248.5 386.58c22.717-16.329 37.5-42.984 37.5-73.128h-75c0 30.144 14.783 56.799 37.5 73.128z" fill="#928bff"/><path d="m336.359 380.458c32.938 43.826 99.936 39.771 127.348-7.708s-2.575-107.529-56.999-114.141l-19.757-2.4-62.55 108.339z" fill="#f7be48"/><path d="m437.631 357.695c24.373-42.215-2.29-95.607-50.68-101.486l-63.451-7.709-37.5 64.952 38.402 51.096c29.286 38.967 88.856 35.362 113.229-6.853z" fill="#f4de48"/><path d="m368.08 317.54c-2.783-27.838-18.475-53.968-44.581-69.04l-37.499 64.952c26.105 15.072 56.581 15.597 82.08 4.088z" fill="#83b3f1"/><path d="m406.708 238.391c54.424-6.612 84.411-66.662 56.999-114.14-27.412-47.479-94.41-51.534-127.348-7.708l-11.957 15.91 62.55 108.339z" fill="#f4de48"/><path d="m437.631 139.305c-24.373-42.215-83.943-45.821-113.229-6.853l-38.402 51.096 37.5 64.952 63.452-7.709c48.389-5.879 75.052-59.271 50.679-101.486z" fill="#fef77d"/><path d="m368.08 179.46c-25.5-11.509-55.975-10.984-82.081 4.088l37.5 64.952c26.106-15.072 41.799-41.202 44.581-69.04z" fill="#928bff"/><path d="m318.849 106.433c21.486-50.439-15.525-106.433-70.349-106.433s-91.835 55.994-70.349 106.433l7.8 18.31h125.099z" fill="#f7be48"/><path d="m248.5 30.11c-48.746 0-81.653 49.786-62.55 94.633l25.05 58.805h75l25.05-58.805c19.103-44.847-13.804-94.633-62.55-94.633z" fill="#f4de48"/><path d="m248.5 110.42c-22.717 16.329-37.5 42.984-37.5 73.128h75c0-30.144-14.783-56.799-37.5-73.128z" fill="#83b3f1"/><circle cx="248.5" cy="248.5" fill="#fef77d" r="75"/><circle cx="263.5" cy="222.519" fill="#f4de48" r="15"/><circle cx="233.5" cy="222.519" fill="#f7be48" r="15"/><circle cx="218.5" cy="248.5" fill="#f4de48" r="15"/><circle cx="233.5" cy="274.481" fill="#f7be48" r="15"/><circle cx="263.5" cy="274.481" fill="#f4de48" r="15"/><circle cx="278.5" cy="248.5" fill="#f7be48" r="15"/><circle cx="248.5" cy="248.5" fill="#fffbbe" r="15"/></g></svg>