<svg id="Capa_1" enable-background="new 0 0 497 497" height="512" viewBox="0 0 497 497" width="512" xmlns="http://www.w3.org/2000/svg"><g><path d="m467 383.5-45 45 45 45h22.5c4.142 0 7.5-3.358 7.5-7.5v-75c0-4.142-3.358-7.5-7.5-7.5z" fill="#fe5e49"/><path d="m293.5 383.5-60 45 60 45h173.5v-90z" fill="#fe8566"/><path d="m15 383.5c-8.284 0-15 6.716-15 15 0 3.847 1.461 7.345 3.842 10-2.381 2.655-3.842 6.153-3.842 10s1.461 7.345 3.842 10c-2.381 2.655-3.842 6.153-3.842 10s1.461 7.345 3.842 10c-2.381 2.655-3.842 6.153-3.842 10 0 8.284 6.716 15 15 15h30v-90z" fill="#83878c"/><path d="m60 383.5h-15c-8.284 0-15 6.716-15 15 0 3.847 1.461 7.345 3.842 10-2.381 2.655-3.842 6.153-3.842 10s1.461 7.345 3.842 10c-2.381 2.655-3.842 6.153-3.842 10s1.461 7.345 3.842 10c-2.381 2.655-3.842 6.153-3.842 10 0 8.284 6.716 15 15 15h15l30-45z" fill="#62676f"/><path d="m60 383.5h233.5v90h-233.5z" fill="#fffbbe"/><path d="m467 98.5-90 45v45h30c24.853 0 45-20.147 45-45 21.821 0 40.015-15.532 44.129-36.143.917-4.594-2.695-8.857-7.38-8.857z" fill="#c2c4c6"/><path d="m422 143.5c24.853 0 45-20.147 45-45h-60c-24.853 0-45 20.147-45 45h-68.5c-21.821 0-40.015 15.532-44.129 36.143-.917 4.594 2.695 8.857 7.38 8.857h120.249c24.853 0 45-20.147 45-45z" fill="#e1e1e3"/><path d="m467 218.5-90 45v45h30c24.853 0 45-20.147 45-45 21.821 0 40.015-15.532 44.129-36.143.917-4.594-2.695-8.857-7.38-8.857z" fill="#c2c4c6"/><path d="m422 263.5c24.853 0 45-20.147 45-45h-332c-24.853 0-45 20.147-45 45-24.853 0-45 20.147-45 45-21.821 0-40.015 15.532-44.129 36.143-.917 4.594 2.695 8.857 7.38 8.857h51.749c24.853 0 45-20.147 45-45h272c24.853 0 45-20.147 45-45z" fill="#e1e1e3"/><path d="m467 23.5-45 45h30c21.821 0 40.015-15.532 44.129-36.143.917-4.594-2.695-8.857-7.38-8.857z" fill="#c2c4c6"/><path d="m452 23.5c-21.821 0-40.015 15.532-44.129 36.143-.917 4.594 2.695 8.857 7.38 8.857h6.749c24.853 0 45-20.147 45-45z" fill="#e1e1e3"/></g></svg>