<svg id="Capa_1" enable-background="new 0 0 497 497" height="512" viewBox="0 0 497 497" width="512" xmlns="http://www.w3.org/2000/svg"><g><path d="m90 225 30 272h53.5l75-30 75 30h53.5l30-272z" fill="#62676f"/><path d="m323.5 497h-30l-30-60 60 30z" fill="#83878c"/><path d="m293.5 497h-120v-30l120-30z" fill="#a4a6aa"/><path d="m323.5 467h-30l-30-60 60 30z" fill="#a4a6aa"/><path d="m293.5 467h-120v-30l120-30z" fill="#c2c4c6"/><path d="m407 437h-98.5l-60-15-60 15h-98.5v-212h317z" fill="#c2c4c6"/><path d="m308.5 315-59.016-45 29.016 167h30z" fill="#98d3f3"/><path d="m204.238 285 44.262 152h30v-152z" fill="#adf2f5"/><path d="m188.5 315v122h60v-152z" fill="#d6f9fa"/><path d="m219.5 225 60 90h30v-90z" fill="#fffbbe"/><path d="m187.5 225h92v90h-92z" fill="#fff"/><path d="m90 135h317v135h-317z" fill="#e1e1e3"/><path d="m467 0-45 75 75-45v-22.5c0-4.142-3.358-7.5-7.5-7.5z" fill="#c2c4c6"/><path d="m377 0v30l90 45v-75z" fill="#e1e1e3"/><path d="m467 30-60 233.5 60 233.5h22.5c4.142 0 7.5-3.358 7.5-7.5v-459.5z" fill="#fe5e49"/><path d="m467 30h-90v467h90v-47l-15-37.5 15-37.5v-30l-15-37.5 15-37.5v-30l-15-37.5 15-37.5v-30l-15-37.5 15-37.5z" fill="#fe8566"/><path d="m90 0-45 75 75-45v-22.5c0-4.142-3.358-7.5-7.5-7.5z" fill="#c2c4c6"/><path d="m0 7.5v22.5l90 45v-75h-82.5c-4.142 0-7.5 3.358-7.5 7.5z" fill="#e1e1e3"/><path d="m90 30-60 233.5 60 233.5h30v-467z" fill="#fe5e49"/><path d="m90 30h-90v459.5c0 4.142 3.358 7.5 7.5 7.5h82.5v-47l-15-37.5 15-37.5v-30l-15-37.5 15-37.5v-30l-15-37.5 15-37.5v-30l-15-37.5 15-37.5z" fill="#fe8566"/><path d="m60 60-15 37.5 15 37.5h30v-75z" fill="#d6f9fa"/><path d="m30 60h30v75h-30z" fill="#fff"/><path d="m60 165-15 37.5 15 37.5h30v-75z" fill="#d6f9fa"/><path d="m30 165h30v75h-30z" fill="#fff"/><path d="m60 270-15 37.5 15 37.5h30v-75z" fill="#d6f9fa"/><path d="m30 270h30v75h-30z" fill="#fff"/><path d="m60 375-15 37.5 15 37.5h30v-75z" fill="#d6f9fa"/><path d="m30 375h30v75h-30z" fill="#fff"/><path d="m437 60-15 37.5 15 37.5h30v-75z" fill="#d6f9fa"/><path d="m407 60h30v75h-30z" fill="#fff"/><path d="m437 165-15 37.5 15 37.5h30v-75z" fill="#d6f9fa"/><path d="m407 165h30v75h-30z" fill="#fff"/><path d="m437 270-15 37.5 15 37.5h30v-75z" fill="#d6f9fa"/><path d="m407 270h30v75h-30z" fill="#fff"/><path d="m437 375-15 37.5 15 37.5h30v-75z" fill="#d6f9fa"/><path d="m407 375h30v75h-30z" fill="#fff"/><path d="m263.5 187.5v-22.5h-30v22.5h-22.5v30h22.5v22.5h30v-22.5h22.5v-30z" fill="#ff3a33"/></g></svg>