<svg id="Capa_1" enable-background="new 0 0 497 497" height="512" viewBox="0 0 497 497" width="512" xmlns="http://www.w3.org/2000/svg"><g><path d="m271.978 0h-23.478l-15 137 60-30-14.095-100.541c-.519-3.704-3.687-6.459-7.427-6.459z" fill="#ff3a33"/><path d="m248.5 0h-23.478c-3.74 0-6.908 2.755-7.427 6.459l-14.095 100.541 30 30 30-30z" fill="#fe5e49"/><path d="m293.5 107-90 75.581h120v-68.081c0-4.142-3.358-7.5-7.5-7.5z" fill="#b53840"/><path d="m173.5 114.5v68.081h120v-75.581h-112.5c-4.142 0-7.5 3.358-7.5 7.5z" fill="#ff3a33"/><path d="m203.5 182 120 315h22.5c4.142 0 7.5-3.358 7.5-7.5v-307.5z" fill="#adf2f5"/><path d="m323.5 182h-180v307.5c0 4.142 3.358 7.5 7.5 7.5h172.5v-45l-15-105 15-105z" fill="#d6f9fa"/><path d="m353.5 167.581h-30v30h30c8.28 0 15-6.72 15-15s-6.72-15-15-15z" fill="#ff3a33"/><path d="m323.5 167.581c8.28 0 15 6.72 15 15s-6.72 15-15 15h-180c-8.28 0-15-6.72-15-15s6.72-15 15-15z" fill="#fe5e49"/><path d="m233.5 467-45-120 45-120h30v240z" fill="#f7be48"/><path d="m173.5 227h60v240h-60z" fill="#f4de48"/><path d="m323.5 362-15 15-15-15v-30l15-15 15 15z" fill="#fe5e49"/><path d="m293.5 362v90c0 8.284 6.716 15 15 15s15-6.716 15-15v-90z" fill="#202833"/><g fill="#414851"><path d="m308.5 227c-8.284 0-15 6.716-15 15v90h30v-90c0-8.284-6.716-15-15-15z"/><path d="m233.5 264.5h-30c-4.143 0-7.5-3.358-7.5-7.5s3.357-7.5 7.5-7.5h30c4.143 0 7.5 3.358 7.5 7.5s-3.357 7.5-7.5 7.5z"/><path d="m233.5 294.5h-15c-4.143 0-7.5-3.358-7.5-7.5s3.357-7.5 7.5-7.5h15c4.143 0 7.5 3.358 7.5 7.5s-3.357 7.5-7.5 7.5z"/><path d="m233.5 324.5h-30c-4.143 0-7.5-3.358-7.5-7.5s3.357-7.5 7.5-7.5h30c4.143 0 7.5 3.358 7.5 7.5s-3.357 7.5-7.5 7.5z"/><path d="m233.5 354.5h-15c-4.143 0-7.5-3.358-7.5-7.5s3.357-7.5 7.5-7.5h15c4.143 0 7.5 3.358 7.5 7.5s-3.357 7.5-7.5 7.5z"/><path d="m233.5 384.5h-30c-4.143 0-7.5-3.358-7.5-7.5s3.357-7.5 7.5-7.5h30c4.143 0 7.5 3.358 7.5 7.5s-3.357 7.5-7.5 7.5z"/><path d="m233.5 414.5h-15c-4.143 0-7.5-3.358-7.5-7.5s3.357-7.5 7.5-7.5h15c4.143 0 7.5 3.358 7.5 7.5s-3.357 7.5-7.5 7.5z"/><path d="m233.5 444.5h-30c-4.143 0-7.5-3.358-7.5-7.5s3.357-7.5 7.5-7.5h30c4.143 0 7.5 3.358 7.5 7.5s-3.357 7.5-7.5 7.5z"/></g></g></svg>