<svg id="Capa_1" enable-background="new 0 0 497 497" height="512" viewBox="0 0 497 497" width="512" xmlns="http://www.w3.org/2000/svg"><g><path d="m437 0h-30v482h60v-452c0-16.569-13.431-30-30-30z" fill="#adf2f5"/><path d="m437 30c0-16.569-13.431-30-30-30h-347c-16.569 0-30 13.431-30 30v452h407v-45l-45-203.5z" fill="#d6f9fa"/><path d="m301.333 407v30h-30l-45.666-90z" fill="#83b3f1"/><path d="m195.667 407v30h75.666v-90z" fill="#98d3f3"/><path d="m271.333 30-45 188.5 45 188.5h30v-377z" fill="#98d3f3"/><path d="m195.667 30h75.667v377h-75.667z" fill="#adf2f5"/><path d="m165.667 407v30h-30l-45.667-90z" fill="#83b3f1"/><path d="m60 407v30h75.667v-90z" fill="#98d3f3"/><path d="m135.667 30-45 188.5 45 188.5h30v-377z" fill="#98d3f3"/><path d="m60 30h75.667v377h-75.667z" fill="#adf2f5"/><path d="m112.833 60v105.667c29.179 0 52.833-23.654 52.833-52.833.001-29.18-23.654-52.834-52.833-52.834z" fill="#b53840"/><path d="m135.666 112.833c0-29.179-10.223-52.833-22.833-52.833-29.179 0-52.833 23.654-52.833 52.833s23.654 52.833 52.833 52.833c12.611.001 22.833-23.654 22.833-52.833z" fill="#ff3a33"/><path d="m437 407v30h-30l-45.667-90z" fill="#83b3f1"/><path d="m331.333 407v30h75.667v-90z" fill="#98d3f3"/><path d="m407 30-45 188.5 45 188.5h30v-377z" fill="#98d3f3"/><path d="m331.333 30h75.667v377h-75.667z" fill="#adf2f5"/><path d="m467 467h-30l30 30h21.215c5.159 0 8.804-5.098 7.091-9.965-4.108-11.671-15.229-20.035-28.306-20.035z" fill="#98d3f3"/><path d="m30 467c-13.077 0-24.198 8.364-28.306 20.035-1.713 4.867 1.932 9.965 7.091 9.965h458.215c0-16.569-13.431-30-30-30z" fill="#adf2f5"/><path d="m384.167 60v105.667c29.179 0 52.833-23.654 52.833-52.833 0-29.18-23.654-52.834-52.833-52.834z" fill="#736dd9"/><path d="m407 112.833c0-29.179-10.223-52.833-22.833-52.833-29.179 0-52.833 23.654-52.833 52.833s23.654 52.833 52.833 52.833c12.61.001 22.833-23.654 22.833-52.833z" fill="#928bff"/><path d="m248.5 60v105.667c29.179 0 52.833-23.654 52.833-52.833 0-29.18-23.654-52.834-52.833-52.834z" fill="#736dd9"/><path d="m271.333 112.833c0-29.179-10.223-52.833-22.833-52.833-29.179 0-52.833 23.654-52.833 52.833s23.654 52.833 52.833 52.833c12.61.001 22.833-23.654 22.833-52.833z" fill="#928bff"/></g></svg>