<svg id="Capa_1" enable-background="new 0 0 497 497" height="512" viewBox="0 0 497 497" width="512" xmlns="http://www.w3.org/2000/svg"><g><path d="m376 0h-30v497h30c16.569 0 30-13.431 30-30v-437c0-16.569-13.431-30-30-30z" fill="#a4a6aa"/><path d="m376 467v-437c0-16.569-13.431-30-30-30h-225c-16.569 0-30 13.431-30 30v437c0 16.569 13.431 30 30 30h225c16.569 0 30-13.431 30-30z" fill="#c2c4c6"/><path d="m183.833 155.667h129.333c34.702 0 62.833-28.131 62.833-62.833.001-34.703-28.13-62.834-62.832-62.834h-129.334c-34.702 0-62.833 28.131-62.833 62.833s28.131 62.834 62.833 62.834z" fill="#e1e1e3"/><path d="m313.17 60h-30v65.67h30c18.1 0 32.83-14.73 32.83-32.84 0-18.1-14.73-32.83-32.83-32.83z" fill="#736dd9"/><path d="m283.17 60c18.1 0 32.83 14.73 32.83 32.83 0 18.11-14.73 32.84-32.83 32.84h-34.67l-37.5-32.84 37.5-32.83z" fill="#928bff"/><path d="m248.5 60v65.67h-64.67c-18.1 0-32.83-14.73-32.83-32.84 0-18.1 14.73-32.83 32.83-32.83z" fill="#fff"/><path d="m183.833 311.333h129.333c34.702 0 62.833-28.131 62.833-62.833s-28.131-62.833-62.833-62.833h-129.333c-34.702 0-62.833 28.131-62.833 62.833s28.131 62.833 62.833 62.833z" fill="#e1e1e3"/><path d="m313.17 215.667h-30v65.67h30c18.1 0 32.83-14.73 32.83-32.84 0-18.1-14.73-32.83-32.83-32.83z" fill="#736dd9"/><path d="m283.17 215.667c18.1 0 32.83 14.73 32.83 32.83 0 18.11-14.73 32.84-32.83 32.84h-34.67l-37.5-32.84 37.5-32.83z" fill="#928bff"/><path d="m248.5 215.667v65.67h-64.67c-18.1 0-32.83-14.73-32.83-32.84 0-18.1 14.73-32.83 32.83-32.83z" fill="#fff"/><path d="m183.833 467h129.333c34.703 0 62.834-28.131 62.834-62.833s-28.131-62.833-62.833-62.833h-129.334c-34.702 0-62.833 28.131-62.833 62.833s28.131 62.833 62.833 62.833z" fill="#e1e1e3"/><path d="m313.17 371.333h-30v65.67h30c18.1 0 32.83-14.73 32.83-32.84 0-18.1-14.73-32.83-32.83-32.83z" fill="#736dd9"/><path d="m283.17 371.333c18.1 0 32.83 14.73 32.83 32.83 0 18.11-14.73 32.84-32.83 32.84h-34.67l-37.5-32.84 37.5-32.83z" fill="#928bff"/><path d="m248.5 371.333v65.67h-64.67c-18.1 0-32.83-14.73-32.83-32.84 0-18.1 14.73-32.83 32.83-32.83z" fill="#fff"/></g></svg>