<svg id="Capa_1" enable-background="new 0 0 504.5 504.5" height="512" viewBox="0 0 504.5 504.5" width="512" xmlns="http://www.w3.org/2000/svg"><g><path d="m92.197 401.697-90 90c-2.929 2.929-2.929 7.678 0 10.606 2.929 2.929 7.678 2.929 10.606 0l90-90z" fill="#a0a2a6"/><path d="m166.909 292.591h30v60h-30z" fill="#d6f9fa" transform="matrix(.707 .707 -.707 .707 281.386 -34.144)"/><path d="m361.714 77.784h106.219v45h-106.219z" fill="#83b3f1" transform="matrix(.707 -.707 .707 .707 50.588 322.697)"/><path d="m345.804 69.374h106.219v30h-106.219z" fill="#98d3f3" transform="matrix(.707 -.707 .707 .707 57.178 306.787)"/><path d="m500.107 89.246-21.213-21.213-21.214 21.213 21.213 21.213c5.858 5.858 15.355 5.858 21.213 0s5.859-15.355.001-21.213z" fill="#adf2f5"/><path d="m478.894 89.246c5.858-5.858 5.858-15.355 0-21.213l-63.64-63.64c-5.858-5.858-15.355-5.858-21.213 0s-5.858 15.355 0 21.213l63.64 63.64c5.857 5.858 15.355 5.858 21.213 0z" fill="#d6f9fa"/><path d="m203.122 322.592 21.213 21.213 63.64-63.64-21.214-84.853z" fill="#f7be48"/><path d="m203.122 322.592-42.427-42.427 63.64-63.64 74.246 10.607z" fill="#f4de48"/><path d="m266.761 258.952 21.214 21.213 31.819-31.82-21.213-84.852z" fill="#2b4478"/><path d="m266.761 258.952-42.426-42.427 31.82-31.819 74.246 10.606z" fill="#554fb2"/><path d="m319.794 248.345 74.247-74.246-63.64-63.639-31.82 116.672z" fill="#adf2f5"/><path d="m261.991 138.796h105v60h-105z" fill="#d6f9fa" transform="matrix(.707 -.707 .707 .707 -27.244 271.818)"/><path d="m404.647 121.066-53.033 10.607 42.427 42.426 31.819-31.82z" fill="#98d3f3"/><path d="m345.024 85.763h45v60h-45z" fill="#adf2f5" transform="matrix(.707 -.707 .707 .707 25.789 293.785)"/><path d="m457.68 216.526-21.213-21.213-21.213 21.213 21.213 21.213c5.858 5.858 15.355 5.858 21.213 0s5.858-15.356 0-21.213z" fill="#adf2f5"/><path d="m436.467 216.526c5.858-5.858 5.858-15.355 0-21.213l-148.492-148.493c-5.858-5.858-15.355-5.858-21.213 0s-5.858 15.355 0 21.213l148.492 148.492c5.858 5.858 15.355 5.858 21.213.001z" fill="#d6f9fa"/><path d="m144.786 327.895-58.336 58.336c-8.787 8.787-8.787 23.033 0 31.82s23.033 8.787 31.82 0l58.336-58.336z" fill="#fe8566"/><path d="m187.212 349.108-21.213-21.213-21.213 21.213 21.213 21.213c5.858 5.858 15.355 5.858 21.213 0s5.858-15.355 0-21.213z" fill="#ff3a33"/><path d="m165.999 349.108c5.858-5.858 5.858-15.355 0-21.213l-10.607-10.607c-5.858-5.858-15.355-5.858-21.213 0s-5.858 15.355 0 21.213l10.607 10.607c5.857 5.858 15.355 5.858 21.213 0z" fill="#fe5e49"/></g></svg>