<svg id="Capa_1" enable-background="new 0 0 497 497" height="512" viewBox="0 0 497 497" width="512" xmlns="http://www.w3.org/2000/svg"><g><path d="m248.5 497c-93.889 0-170-76.112-170-170v-267c0-33.137 26.863-60 60-60h220c33.137 0 60 26.863 60 60v267c0 93.888-76.112 170-170 170z" fill="#e1e1e3"/><path d="m358.5 30h-30l-80 437c77.32 0 140-62.68 140-140v-267c0-16.569-13.431-30-30-30z" fill="#928bff"/><path d="m358.5 327-75-133.5 75-133.5c0-16.569-13.431-30-30-30h-190c-16.569 0-30 13.431-30 30v267c0 77.32 62.68 140 140 140 60.751 0 110-62.68 110-140z" fill="#83b3f1"/><path d="m248.5 357v80c22.091 0 40-17.909 40-40s-17.909-40-40-40z" fill="#d6f9fa"/><path d="m258.5 397c0-22.091-4.477-40-10-40-22.091 0-40 17.909-40 40s17.909 40 40 40c5.523 0 10-17.909 10-40z" fill="#fff"/><path d="m328.5 60-90 133.5 90 133.5h30v-267z" fill="#20335a"/><path d="m138.5 60v267h190v-30l-30-45 30-45v-147z" fill="#2b4478"/><path d="m275.167 207-30 45 30 45h53.333v-90z" fill="#3ac7cf"/><path d="m221.833 207-30 45 30 45h53.334v-90z" fill="#74dce2"/><path d="m168.5 207h53.333v90h-53.333z" fill="#fffbbe"/><path d="m268.5 90c-2.98 0-5.855.44-8.572 1.249l-11.428 85.751s50-21.239 50-57c0-16.569-13.431-30-30-30z" fill="#ff3a33"/><path d="m259.928 91.249c-4.289 1.278-8.178 3.486-11.428 6.396-5.308-4.752-12.315-7.645-20-7.645-16.569 0-30 13.431-30 30 0 35.761 50 57 50 57s20-21.239 20-57c0-13.589-3.615-25.062-8.572-28.751z" fill="#fe5e49"/></g></svg>