<svg id="Capa_1" enable-background="new 0 0 497 497" height="512" viewBox="0 0 497 497" width="512" xmlns="http://www.w3.org/2000/svg"><g><path d="m233.5 120h60v75h-60z" fill="#928bff"/><path d="m203.5 120h60v75h-60z" fill="#83b3f1"/><path d="m353.5 259.89-90 75v-169.89h30c35.47 16.85 60 53 60 94.89z" fill="#83b3f1"/><path d="m323.5 259.89h-180c0-41.89 24.53-78.04 60-94.89h60c35.47 16.85 60 53 60 94.89z" fill="#98d3f3"/><path d="m353.5 259.89v237.11h-30l-75-118.555 75-118.555z" fill="#c2c4c6"/><path d="m143.5 259.89h180v237.11h-180z" fill="#e1e1e3"/><path d="m248.5 60c-8.284 0-15 6.716-15 15v45h30v-45c0-8.284-6.715-15-15-15z" fill="#f7be48"/><path d="m293.5 15v90h-90v-90h-92.41v15c9.276 0 17.84 4.97 22.442 13.024l43.92 76.861c5.342 9.346 15.282 15.115 26.048 15.115h90c10.766 0 20.706-5.769 26.047-15.116l43.92-76.861c4.603-8.053 13.167-13.023 22.443-13.023v-15z" fill="#2b4478"/><path d="m385.91 0h-30v30h30c8.284 0 15-6.716 15-15s-6.716-15-15-15z" fill="#928bff"/><path d="m370.91 15c0-8.284-6.716-15-15-15h-244.82c-8.284 0-15 6.716-15 15s6.716 15 15 15h244.819c8.285 0 15.001-6.716 15.001-15z" fill="#83b3f1"/></g></svg>