<svg id="Capa_1" enable-background="new 0 0 497 497" height="512" viewBox="0 0 497 497" width="512" xmlns="http://www.w3.org/2000/svg"><g><path d="m233.5 377v112.5c0 4.142 3.358 7.5 7.5 7.5h15c4.142 0 7.5-3.358 7.5-7.5v-112.5z" fill="#e1e1e3"/><path d="m248.5 332 15 75h30c16.569 0 30-13.431 30-30z" fill="#a0a2a6"/><path d="m293.5 377-45-45-75 45c0 16.569 13.431 30 30 30h60c16.569 0 30-13.431 30-30z" fill="#c2c4c6"/><path d="m353.5 0h-30l-75 347 90-45 36.254-60.423c5.723-9.539 8.746-20.453 8.746-31.577 0 0-45-90-45-90l45-75v-15c0-16.569-13.431-30-30-30z" fill="#a0a2a6"/><path d="m353.5 210v-180c0-16.569-13.431-30-30-30h-180c-16.569 0-30 13.431-30 30v15l45 75-45 90c0 11.124 3.023 22.039 8.746 31.577l36.254 60.423 90 45 60-45 36.254-60.423c5.723-9.538 8.746-20.453 8.746-31.577z" fill="#c2c4c6"/><path d="m383.5 90-90 60 60-105.317h30z" fill="#83b3f1"/><path d="m353.5 150-240-60v-45h240z" fill="#98d3f3"/><path d="m383.5 210h-30l-105-60 105-60.317h30z" fill="#fef77d"/><path d="m113.5 90h240v120h-240z" fill="#fff"/><path d="m338.5 302h-30l30 75h22.5c4.142 0 7.5-3.358 7.5-7.5v-37.5c0-16.569-13.431-30-30-30z" fill="#c2c4c6"/><path d="m308.5 302h-150c-16.569 0-30 13.431-30 30v37.5c0 4.142 3.358 7.5 7.5 7.5h202.5v-45c0-16.569-13.431-30-30-30z" fill="#e1e1e3"/><g fill="#414851"><path d="m248.5 127.5h-105c-4.142 0-7.5-3.357-7.5-7.5s3.358-7.5 7.5-7.5h105c4.142 0 7.5 3.357 7.5 7.5s-3.358 7.5-7.5 7.5z"/><path d="m248.5 157.5h-105c-4.142 0-7.5-3.357-7.5-7.5s3.358-7.5 7.5-7.5h105c4.142 0 7.5 3.357 7.5 7.5s-3.358 7.5-7.5 7.5z"/><path d="m248.5 187.5h-105c-4.142 0-7.5-3.357-7.5-7.5s3.358-7.5 7.5-7.5h105c4.142 0 7.5 3.357 7.5 7.5s-3.358 7.5-7.5 7.5z"/></g></g></svg>