<svg id="Capa_1" enable-background="new 0 0 497 497" height="512" viewBox="0 0 497 497" width="512" xmlns="http://www.w3.org/2000/svg"><g><path d="m338.5 0-90 156.33 60-30 39.85-59.77c11.663-17.495 18.497-37.709 19.886-58.598.286-4.314-3.17-7.962-7.494-7.962z" fill="#98d3f3"/><path d="m136.258 0h202.242c0 23.69-7.01 46.85-20.15 66.56l-39.85 59.77-30 30-60-30-39.85-59.77c-11.663-17.495-18.497-37.708-19.886-58.598-.286-4.314 3.17-7.962 7.494-7.962z" fill="#adf2f5"/><path d="m263.5 141.33h45v75h-45z" fill="#ff3a33"/><path d="m233.5 141.33h45v75h-45z" fill="#fe5e49"/><path d="m203.5 141.33h45v75h-45z" fill="#fe8566"/><path d="m188.5 141.33h30v75h-30z" fill="#fe5e49"/><path d="m278.5 96.33v45h-60l30-45z" fill="#fe8566"/><path d="m218.5 96.33h30v45h-30z" fill="#ffad84"/><path d="m308.5 126.33h-30v30h30c8.28 0 15-6.71 15-15 0-8.28-6.72-15-15-15z" fill="#b53840"/><path d="m293.5 141.33c0-8.28-6.72-15-15-15h-90c-8.28 0-15 6.72-15 15 0 8.29 6.72 15 15 15h90c8.28 0 15-6.71 15-15z" fill="#ff3a33"/><path d="m348.35 261.1-39.85-59.77h-30v280.67l90-30v-124.33c0-23.69-7.01-46.86-20.15-66.57z" fill="#adf2f5"/><path d="m318.35 261.1-39.85-59.77h-90l-39.85 59.77c-13.14 19.71-20.15 42.88-20.15 66.57v124.33l210 30v-154.33c0-23.69-7.01-46.86-20.15-66.57z" fill="#d6f9fa"/><path d="m323.5 422h-30v45h45v-15z" fill="#fe8566"/><path d="m293.5 422h-120l-15 30v15h150v-15z" fill="#ffad84"/><path d="m368.5 452v37.5c0 4.142-3.358 7.5-7.5 7.5h-22.5l-30-22.5 30-22.5z" fill="#b53840"/><path d="m128.5 452v37.5c0 4.142 3.358 7.5 7.5 7.5h202.5v-45z" fill="#ff3a33"/></g></svg>