<svg id="Capa_1" enable-background="new 0 0 497 497" height="512" viewBox="0 0 497 497" width="512" xmlns="http://www.w3.org/2000/svg"><g><path d="m315.007 0h-26.767v195l80.26-60v-10.26c0-47.267-18.232-90.277-48.039-122.39-1.404-1.513-3.391-2.35-5.454-2.35z" fill="#98d3f3"/><path d="m288.24 0h-106.247c-2.064 0-4.05.837-5.454 2.35-29.807 32.113-48.039 75.123-48.039 122.39v10.26l120 75 90-75v-10.26c0-48.43-19.14-92.39-50.26-124.74z" fill="#adf2f5"/><path d="m368.5 135v197h-120l90-197z" fill="#adf2f5"/><path d="m338.5 135v197h-210v-197h60l60 15 60-15z" fill="#d6f9fa"/><path d="m278.5 135-30 30h30c16.569 0 30-13.431 30-30z" fill="#83b3f1"/><path d="m278.5 135h-90c0 16.569 13.431 30 30 30h30c16.569 0 30-13.431 30-30z" fill="#98d3f3"/><path d="m248.5 332h120v75h-120z" fill="#adf2f5"/><path d="m128.5 332h210v75h-210z" fill="#d6f9fa"/><path d="m233.5 332h60v75h-60z" fill="#83b3f1"/><path d="m203.5 332h60v75h-60z" fill="#98d3f3"/><path d="m383.5 422-60 45 30-75h22.5c4.142 0 7.5 3.358 7.5 7.5z" fill="#554fb2"/><path d="m353.5 452h-210l-30-30v-22.5c0-4.142 3.358-7.5 7.5-7.5h232.5z" fill="#736dd9"/><path d="m368.5 317h-30v30h30c8.28 0 15-6.72 15-15s-6.72-15-15-15z" fill="#98d3f3"/><path d="m338.5 317c8.28 0 15 6.72 15 15s-6.72 15-15 15h-210c-8.28 0-15-6.72-15-15s6.72-15 15-15z" fill="#adf2f5"/><path d="m383.5 422v67.5c0 4.142-3.358 7.5-7.5 7.5h-22.5l-30-37.5 30-37.5z" fill="#736dd9"/><path d="m353.5 422v75h-30l-30-37.5 30-37.5z" fill="#928bff"/><path d="m323.5 422v75h-30l-30-37.5 30-37.5z" fill="#83b3f1"/><path d="m293.5 422v75h-30l-30-37.5 30-37.5z" fill="#928bff"/><path d="m263.5 422v75h-30l-30-37.5 30-37.5z" fill="#83b3f1"/><path d="m233.5 422v75h-30l-30-37.5 30-37.5z" fill="#928bff"/><path d="m203.5 422v75h-30l-30-37.5 30-37.5z" fill="#83b3f1"/><path d="m173.5 422v75h-30l-15-37.5 15-37.5z" fill="#928bff"/><path d="m143.5 422v75h-22.5c-4.142 0-7.5-3.358-7.5-7.5v-67.5z" fill="#83b3f1"/></g></svg>