<svg id="Capa_1" enable-background="new 0 0 497 497" height="512" viewBox="0 0 497 497" width="512" xmlns="http://www.w3.org/2000/svg"><g><g fill="#3ac7cf"><path d="m218.5 120h90v60h-90z"/><path d="m188.5 120h90v60h-90z"/><path d="m376 300c9.604-9.604 15-22.631 15-36.213 0-15.15-6.391-29.597-17.601-39.787l-64.899-59h-30l52.5 332h30c16.569 0 30-13.431 30-30v-23.787c0-13.583-5.396-26.609-15-36.213z"/></g><path d="m354.787 428.213-8.787-8.786-.272-119.427c5.297-9.604 8.273-22.631 8.273-36.213 0-15.15-3.525-29.597-9.707-39.787l-35.794-59h-120l-64.899 58.999c-11.21 10.191-17.601 24.638-17.601 39.788 0 13.583 5.396 26.609 15 36.213v107c-9.604 9.604-15 22.631-15 36.213v23.787c0 16.569 13.431 30 30 30h195c16.569 0 30-13.431 30-30v-23.787c0-5.666-2.206-10.993-6.213-15z" fill="#74dce2"/><path d="m286.995 0h-23.495l-15 135 60-30-14.08-98.561c-.528-3.695-3.692-6.439-7.425-6.439z" fill="#2b4478"/><path d="m202.58 6.439-14.08 98.561 60 30 30-30-15-105h-53.495c-3.733 0-6.897 2.744-7.425 6.439z" fill="#554fb2"/><path d="m308.5 105h-30v30h30c8.284 0 15-6.716 15-15s-6.716-15-15-15z" fill="#3ac7cf"/><path d="m293.5 120c0-8.284-6.716-15-15-15h-90c-8.284 0-15 6.716-15 15s6.716 15 15 15h90c8.284 0 15-6.716 15-15z" fill="#74dce2"/><path d="m345.728 345-60 30 30-75h30z" fill="#2b4478"/><path d="m315.728 405-165-60v-45h165z" fill="#554fb2"/><path d="m346 345v74h-30l-60-37 60-37z" fill="#fef77d"/><path d="m151 345h165v74h-165z" fill="#fff"/></g></svg>