<svg id="Capa_1" enable-background="new 0 0 496.993 496.993" height="512" viewBox="0 0 496.993 496.993" width="512" xmlns="http://www.w3.org/2000/svg"><g><path d="m453.066 43.927-234.813 3.223c-46.729 23.764-103.318 52.542-103.318 52.542l282.365 282.365 83.485-164.161c28.591-56.31 19.359-126.891-27.719-173.969z" fill="#fe5e49"/><path d="m453.066 43.927c-47.078-47.078-117.659-56.31-173.967-27.719-.001-.001-27.985 14.23-60.846 30.941 100.266 3.39 184.936 68.27 217.473 158.129 4.367 12.06 20.838 13.478 27.159 2.318l2.749-4.853c30.672-54.227 27.436-118.812-12.568-158.816z" fill="#fe8566"/><circle cx="210" cy="286.993" fill="#ffd4a1" r="210"/><circle cx="210" cy="286.993" fill="#fe5e49" r="180"/><circle cx="210" cy="286.993" fill="#fe8566" r="150"/><path d="m318.284 258.709c-7.502-7.501-11.716-17.676-11.716-28.284 0-22.091-17.909-40-40-40-10.609 0-20.783-4.214-28.284-11.716-7.81-7.811-18.047-11.716-28.284-11.716v240c10.237 0 20.474-3.905 28.284-11.716 7.502-7.501 17.676-11.716 28.284-11.716 22.091 0 40-17.908 40-40 0-10.609 4.214-20.783 11.716-28.284 15.621-15.621 15.621-40.947 0-56.568z" fill="#b53840"/><path d="m291.213 258.709c-5.626-7.501-8.787-17.676-8.787-28.284 0-22.091-13.431-40-30-40-7.957 0-15.587-4.214-21.213-11.716-5.858-7.811-13.536-11.716-21.213-11.716-10.237 0-20.474 3.905-28.284 11.716-7.502 7.501-17.676 11.716-28.284 11.716-22.091 0-40 17.908-40 40 0 10.609-4.214 20.783-11.716 28.284-15.621 15.621-15.621 40.948 0 56.568 7.502 7.501 11.716 17.676 11.716 28.284 0 22.092 17.909 40 40 40 10.609 0 20.783 4.214 28.284 11.716 7.811 7.811 18.047 11.716 28.284 11.716 7.678 0 15.355-3.905 21.213-11.716 5.626-7.501 13.257-11.716 21.213-11.716 16.569 0 30-17.908 30-40 0-10.609 3.161-20.783 8.787-28.284 11.716-15.621 11.716-40.947 0-56.568z" fill="#ff3a33"/></g></svg>