<svg id="Capa_1" enable-background="new 0 0 497 497" height="512" viewBox="0 0 497 497" width="512" xmlns="http://www.w3.org/2000/svg"><g><path d="m128.5 285v212h30c33.137 0 60-26.863 60-60v-152z" fill="#fe5e49"/><path d="m30 407c-16.569 0-30 43.431-30 60s13.431 30 30 30h98.5c33.137 0 60-26.863 60-60v-30z" fill="#fe8566"/><path d="m128.5 214.425 60 100.575c16.569 0 30-13.431 30-30v-70.575z" fill="#fe8566"/><path d="m30 437h128.5c16.569 0 30-13.431 30-30v-282.052c0-19.301-15.646-34.948-34.947-34.948-6.569 0-13.004 1.851-18.569 5.341-83.991 52.678-134.984 144.851-134.984 243.994v127.665c0-16.568 13.431-30 30-30z" fill="#ffad84"/><path d="m467 407-30 90h30c16.57 0 30-13.43 30-30s-13.43-60-30-60z" fill="#fe5e49"/><path d="m278.5 285v152c0 33.14 26.86 60 60 60h98.5c16.57 0 30-13.43 30-30v-182z" fill="#fe8566"/><path d="m362.02 95.335c-5.29-3.31-11.36-5.15-17.58-5.32l122.56 346.98c16.57 0 30 13.43 30 30v-127.66c0-99.15-50.99-191.32-134.98-244z" fill="#fe8566"/><path d="m467 339.335v97.66h-128.5c-16.57 0-30-13.43-30-30v-92c-16.57 0-30-13.43-30-30v-70.57h30v-89.48c0-19.3 15.65-34.95 34.95-34.95.33 0 .66.01.99.02 4.93.22 9.75 2.05 13.95 5.32 67.58 52.68 108.61 144.85 108.61 244z" fill="#ffad84"/><path d="m248.5 0-15 60 45-30v-22.5c0-4.142-3.358-7.5-7.5-7.5z" fill="#fe8566"/><path d="m218.5 7.5v22.5l30 30v-60h-22.5c-4.142 0-7.5 3.358-7.5 7.5z" fill="#ffad84"/><path d="m248.5 30-15 60 45-30v-30z" fill="#ffd4a1"/><path d="m218.5 30v30l30 30v-60z" fill="#fffbbe"/><path d="m248.5 60-15 60 45-30v-30z" fill="#fe8566"/><path d="m218.5 60v30l30 30v-60z" fill="#ffad84"/><path d="m248.5 90-15 60 45-30v-30z" fill="#ffd4a1"/><path d="m218.5 90v30l30 30v-60z" fill="#fffbbe"/><path d="m248.5 120-15 60 45-30v-30z" fill="#fe8566"/><path d="m218.5 120v30l30 30v-60z" fill="#ffad84"/><path d="m309.5 195c-17.121 0-31-13.879-31-31v-14h-60v14c0 17.121-13.879 31-31 31-12.426 0-22.5 10.074-22.5 22.5s10.074 22.5 22.5 22.5c24.955 0 47.136-12.093 61-30.723 13.864 18.63 36.045 30.723 61 30.723 12.426 0 22.5-10.074 22.5-22.5s-10.073-22.5-22.5-22.5z" fill="#fffbbe"/></g></svg>