<svg id="Capa_1" enable-background="new 0 0 497 497" height="512" viewBox="0 0 497 497" width="512" xmlns="http://www.w3.org/2000/svg"><g><path d="m355.241 91.399c3.582-10.011 2.915-21.469-2.818-31.399-5.733-9.929-15.323-16.237-25.783-18.14-1.903-10.461-8.21-20.05-18.14-25.783-9.929-5.733-21.388-6.4-31.399-2.818-6.878-8.108-17.136-13.259-28.601-13.259s-21.723 5.151-28.601 13.259c-10.011-3.582-21.469-2.915-31.399 2.818-9.929 5.733-16.237 15.323-18.14 25.783-10.461 1.903-20.05 8.21-25.783 18.14s-6.4 21.388-2.818 31.399c-8.108 6.878-13.259 17.136-13.259 28.601v90h240v-90c0-11.465-5.151-21.723-13.259-28.601z" fill="#fef77d"/><path d="m433.573 350.99-110.073-33.99 143.5 180h22.5c4.142 0 7.5-3.358 7.5-7.5v-52.5c0-40.455-26.693-74.675-63.427-86.01z" fill="#ffad84"/><path d="m414.54 350.99-91.04-33.99h-150l-110.073 33.99c-36.734 11.335-63.427 45.554-63.427 86.01v52.5c0 4.142 3.358 7.5 7.5 7.5h67.5l15-30 15 30h287l15-30 15 30h45v-60c0-40.456-22.078-74.675-52.46-86.01z" fill="#ffd4a1"/><path d="m407 452c-8.284 0-15 6.716-15 15v30h30v-30c0-8.284-6.716-15-15-15z" fill="#ffad84"/><path d="m90 452c-8.284 0-15 6.716-15 15v30h30v-30c0-8.284-6.716-15-15-15z" fill="#ffad84"/><path d="m121 225c-20.711 0-37.5 16.79-37.5 37.5 0 20.711 16.789 37.5 37.5 37.5h127.5v-75z" fill="#fe8566"/><path d="m376 225h-127.5v75h127.5c20.711 0 37.5-16.789 37.5-37.5 0-20.71-16.789-37.5-37.5-37.5z" fill="#fe5e49"/><path d="m248.5 90v330c66.274 0 120-53.726 120-120v-90c0-66.274-53.726-120-120-120z" fill="#fe8566"/><path d="m248.5 90c-66.274 0-120 53.726-120 120v90c0 66.274 53.726 120 120 120 49.706 0 90-53.726 90-120v-90c0-66.274-40.294-120-90-120z" fill="#ffad84"/><path d="m170.36 93.14c1.903 10.461 8.21 20.051 18.14 25.783s21.388 6.4 31.399 2.818c6.878 8.108 17.136 13.259 28.601 13.259s21.723-5.151 28.601-13.259c10.011 3.582 21.469 2.915 31.399-2.818s16.237-15.323 18.14-25.783l-78.14-30z" fill="#fef77d"/><path d="m301 255c-16.542 0-30-13.458-30-30 0-4.142 3.357-7.5 7.5-7.5s7.5 3.358 7.5 7.5c0 8.271 6.729 15 15 15s15-6.729 15-15c0-4.142 3.357-7.5 7.5-7.5s7.5 3.358 7.5 7.5c0 16.542-13.458 30-30 30z" fill="#fe8566"/><path d="m196 255c-16.542 0-30-13.458-30-30 0-4.142 3.357-7.5 7.5-7.5s7.5 3.358 7.5 7.5c0 8.271 6.729 15 15 15s15-6.729 15-15c0-4.142 3.357-7.5 7.5-7.5s7.5 3.358 7.5 7.5c0 16.542-13.458 30-30 30z" fill="#fe8566"/><path d="m248.5 270c-24.853 0-45 20.147-45 45l.004.622c.059 4.34 1.474 8.201 3.779 11.316h82.434c2.305-3.115 3.72-6.976 3.779-11.316l.004-.622c0-24.853-20.147-45-45-45z" fill="#ff3a33"/><path d="m248.5 300c-18.427 0-34.258 11.081-41.217 26.939 5.198 7.025 14.939 10.239 23.979 6.484 5.308-2.205 11.131-3.423 17.238-3.423s11.93 1.218 17.238 3.423c9.039 3.755 18.781.541 23.979-6.484-6.959-15.858-22.79-26.939-41.217-26.939z" fill="#fe5e49"/><path d="m428.5 7.5v69.5h38.5v-69.5c0-4.142-3.358-7.5-7.5-7.5h-23.5c-4.142 0-7.5 3.358-7.5 7.5z" fill="#e1e1e3"/><path d="m467 30-30 83.5 30 83.5h22.5c4.142 0 7.5-3.358 7.5-7.5v-152c0-4.142-3.358-7.5-7.5-7.5z" fill="#a4a6aa"/><path d="m467 30h-61c-4.142 0-7.5 3.358-7.5 7.5v152c0 4.142 3.358 7.5 7.5 7.5h61v-30l-23.5-53.5 23.5-53.5z" fill="#c2c4c6"/><path d="m428.5 167h38.5v-30l-19.25-30-19.25 30z" fill="#f4de48"/><path d="m428.5 60h38.5v77h-38.5z" fill="#414851"/></g></svg>