<svg id="Capa_1" enable-background="new 0 0 497 497" height="512" viewBox="0 0 497 497" width="512" xmlns="http://www.w3.org/2000/svg"><g><path d="m433.573 320.99-110.073-33.99 143.5 210h22.5c4.142 0 7.5-3.358 7.5-7.5v-82.5c0-40.455-26.693-74.675-63.427-86.01z" fill="#ffad84"/><path d="m414.54 320.99-91.04-33.99v-212h-150v212l-110.073 33.99c-36.734 11.335-63.427 45.554-63.427 86.01v82.5c0 4.142 3.358 7.5 7.5 7.5h67.5l15-60 15 60h128.5l15-30 15 30h128.5l15-60 15 60h45v-90c0-40.456-22.078-74.675-52.46-86.01z" fill="#ffd4a1"/><g fill="#ffad84"><path d="m407 422c-8.284 0-15 6.716-15 15v60h30v-60c0-8.284-6.716-15-15-15z"/><path d="m90 422c-8.284 0-15 6.716-15 15v60h30v-60c0-8.284-6.716-15-15-15z"/><path d="m121 30c-20.711 0-37.5 16.79-37.5 37.5 0 20.711 16.789 37.5 37.5 37.5h127.5v-75z"/></g><path d="m376 30h-127.5v75h127.5c20.711 0 37.5-16.789 37.5-37.5 0-20.71-16.789-37.5-37.5-37.5z" fill="#fe8566"/><path d="m338.5 0-90 225c66.274 0 120-53.726 120-120v-97.5c0-4.142-3.358-7.5-7.5-7.5z" fill="#ffad84"/><path d="m338.5 105v-105h-202.5c-4.142 0-7.5 3.358-7.5 7.5v97.5c0 66.274 53.726 120 120 120 49.706 0 90-53.726 90-120z" fill="#ffd4a1"/><path d="m313.469 82.548-12.994-22.51c-10.37-17.95-29.755-30.038-51.975-30.038v165c41.421 0 75-33.579 75-75 0-13.646-3.662-26.429-10.031-37.452z" fill="#adf2f5"/><path d="m293.5 120c0-13.646-2.198-26.429-6.019-37.452l-7.796-22.51c-6.222-17.95-17.853-30.038-31.185-30.038-22.22 0-41.605 12.088-51.975 30.039l-12.994 22.51c-6.369 11.022-10.031 23.805-10.031 37.451 0 41.421 33.579 75 75 75 24.853 0 45-33.579 45-75z" fill="#d6f9fa"/><circle cx="248.5" cy="135" fill="#83b3f1" r="30"/><circle cx="248.5" cy="60" fill="#adf2f5" r="7.5"/><path d="m233.5 285 15 30 15-30v-30l-15-30-15 30z" fill="#83b3f1"/><path d="m233.5 285h30v212h-30z" fill="#fff"/><path d="m248.5 135c-8.284 0-15 6.716-15 15v105h30v-105c0-8.284-6.716-15-15-15z" fill="#98d3f3"/></g></svg>