<svg id="Capa_1" enable-background="new 0 0 497 497" height="512" viewBox="0 0 497 497" width="512" xmlns="http://www.w3.org/2000/svg"><g><path d="m462.092 174.173-28.978-7.765-7.765 28.978 28.978 7.765c8.002 2.144 16.227-2.605 18.371-10.607s-2.604-16.227-10.606-18.371z" fill="#98d3f3"/><path d="m409.059 82.317c-8.002-2.144-16.227 2.605-18.371 10.607l-7.764 28.977 28.978 7.765 7.765-28.978c2.143-8.002-2.606-16.227-10.608-18.371z" fill="#98d3f3"/><path d="m463.707 124.25c-4.142-7.174-13.316-9.633-20.49-5.49l-25.981 15 15 25.981 25.981-15c7.174-4.143 9.632-13.317 5.49-20.491z" fill="#98d3f3"/><path d="m38.783 352.26c-7.174 4.142-9.633 13.316-5.49 20.49s13.316 9.633 20.49 5.49l25.981-15-15-25.981z" fill="#adf2f5"/><path d="m114.077 375.099-28.978-7.765-7.765 28.978c-2.144 8.002 2.605 16.227 10.607 18.371s16.227-2.605 18.371-10.607z" fill="#adf2f5"/><path d="m42.673 293.85c-8.002-2.144-16.227 2.605-18.371 10.607s2.605 16.227 10.607 18.371l28.978 7.765 7.765-28.978z" fill="#adf2f5"/><path d="m312.14 26.36c-5.858-5.858-15.355-5.858-21.213 0l-21.213 21.213 21.213 21.213 21.213-21.213c5.857-5.857 5.857-15.355 0-21.213z" fill="#98d3f3"/><path d="m184.86 47.574 21.213 21.213 21.214-21.213-21.213-21.214c-5.858-5.858-15.355-5.858-21.213 0-5.859 5.858-5.858 15.356-.001 21.214z" fill="#adf2f5"/><path d="m233.5 15v30h30v-30c0-8.284-6.716-15-15-15s-15 6.716-15 15z" fill="#98d3f3"/><path d="m263.5 482v-30h-30v30c0 8.284 6.716 15 15 15s15-6.716 15-15z" fill="#98d3f3"/><path d="m312.14 449.426-21.213-21.213-21.213 21.213 21.213 21.213c5.858 5.858 15.355 5.858 21.213 0 5.857-5.857 5.857-15.355 0-21.213z" fill="#98d3f3"/><g fill="#adf2f5"><path d="m227.287 449.426-21.213-21.213-21.213 21.213c-5.858 5.858-5.858 15.355 0 21.213s15.355 5.858 21.213 0z"/><path d="m85.099 129.666 28.978-7.765-7.765-28.978c-2.144-8.002-10.369-12.751-18.371-10.607s-12.751 10.369-10.607 18.371z"/><path d="m34.908 174.172c-8.002 2.144-12.751 10.369-10.607 18.371s10.369 12.751 18.371 10.607l28.977-7.764-7.764-28.978z"/><path d="m79.764 133.76-25.981-15c-7.174-4.142-16.348-1.684-20.49 5.49s-1.684 16.348 5.49 20.49l25.981 15z"/></g><path d="m417.236 363.24 25.981 15c7.175 4.142 16.348 1.684 20.49-5.49s1.684-16.348-5.49-20.49l-25.981-15z" fill="#98d3f3"/><path d="m462.092 322.827c8.002-2.144 12.751-10.369 10.607-18.371s-10.369-12.751-18.371-10.607l-28.978 7.765 7.765 28.978z" fill="#98d3f3"/><path d="m411.901 367.334-28.978 7.765 7.765 28.978c2.144 8.002 10.369 12.751 18.371 10.607s12.751-10.369 10.607-18.371z" fill="#98d3f3"/><path d="m290.926 449.426c5.858-5.858 5.858-15.355 0-21.213l-27.426-27.426v-32.574l6.213 6.213c5.858 5.858 15.355 5.858 21.213 0s5.858-15.355 0-21.213l-27.426-27.426v-51.306l44.432 25.653 10.039 37.465c2.144 8.002 10.369 12.751 18.371 10.607s12.751-10.369 10.607-18.371l-2.274-8.487 28.21 16.287 10.039 37.465c2.144 8.002 10.369 12.751 18.371 10.607s12.751-10.369 10.607-18.371l-2.274-8.487 7.61 4.393c7.174 4.142 16.348 1.684 20.49-5.49s1.684-16.348-5.49-20.49l-7.61-4.393 8.488-2.274c8.002-2.144 12.751-10.369 10.607-18.371s-10.369-12.751-18.371-10.607l-37.465 10.039-28.21-16.287 8.488-2.274c8.002-2.144 12.751-10.369 10.607-18.371s-10.369-12.751-18.371-10.607l-37.465 10.039-44.436-25.656 44.432-25.653 37.465 10.039c8.002 2.144 16.227-2.605 18.371-10.607s-2.605-16.227-10.607-18.371l-8.488-2.274 28.21-16.287 37.465 10.039c8.002 2.144 16.227-2.605 18.371-10.607s-2.605-16.227-10.607-18.371l-8.487-2.274 7.61-4.393c7.174-4.142 9.633-13.316 5.49-20.49-4.142-7.174-13.316-9.633-20.49-5.49l-7.61 4.393 2.274-8.487c2.144-8.002-2.605-16.227-10.607-18.371s-16.227 2.604-18.371 10.606l-10.039 37.466-28.21 16.287 2.274-8.487c2.144-8.002-2.605-16.227-10.607-18.371s-16.227 2.605-18.371 10.607l-10.039 37.465-44.429 25.65v-51.306l27.426-27.426c5.858-5.858 5.858-15.356 0-21.213-5.858-5.858-15.355-5.858-21.213 0l-6.213 6.213v-32.574l27.426-27.426c5.858-5.858 5.858-15.355 0-21.213s-15.355-5.858-21.213 0l-6.213 6.213v-8.787c0-8.284-6.716-15-15-15s-15 6.716-15 15v8.787l-6.213-6.213c-5.858-5.858-15.355-5.858-21.213 0s-5.858 15.355 0 21.213l27.426 27.426v32.574l-6.213-6.213c-5.858-5.858-15.355-5.858-21.213 0s-5.858 15.355 0 21.213l27.426 27.426v51.306l-44.432-25.653-10.039-37.465c-2.144-8.002-10.369-12.751-18.371-10.607s-12.751 10.369-10.607 18.371l2.274 8.487-28.209-16.287-10.039-37.465c-2.144-8.002-10.369-12.751-18.371-10.607s-12.751 10.369-10.607 18.371l2.274 8.487-7.61-4.393c-7.174-4.142-16.348-1.684-20.49 5.49s-1.684 16.348 5.49 20.49l7.609 4.393-8.487 2.274c-8.002 2.144-12.751 10.369-10.607 18.371s10.369 12.751 18.371 10.607l37.466-10.039 28.21 16.287-8.487 2.274c-8.002 2.144-12.751 10.369-10.607 18.371s10.369 12.751 18.371 10.607l37.465-10.039 44.433 25.656-44.432 25.653-37.465-10.039c-8.002-2.144-16.227 2.605-18.371 10.607s2.605 16.227 10.607 18.371l8.487 2.274-28.21 16.287-37.465-10.039c-8.002-2.144-16.227 2.605-18.371 10.607s2.605 16.227 10.607 18.371l8.487 2.274-7.609 4.393c-7.174 4.142-9.633 13.316-5.49 20.49 4.142 7.174 13.316 9.633 20.49 5.49l7.61-4.393-2.274 8.487c-2.144 8.002 2.605 16.227 10.607 18.371s16.227-2.605 18.371-10.607l10.039-37.465 28.21-16.287-2.274 8.487c-2.144 8.002 2.605 16.227 10.607 18.371s16.227-2.605 18.371-10.607l10.039-37.465 44.432-25.653v51.306l-27.426 27.426c-5.858 5.858-5.858 15.355 0 21.213s15.355 5.858 21.213 0l6.213-6.213v32.574l-27.426 27.426c-5.858 5.858-5.858 15.355 0 21.213s15.355 5.858 21.213 0l6.213-6.213v8.787c0 8.284 6.716 15 15 15s15-6.716 15-15v-8.787l6.213 6.213c5.855 5.861 15.353 5.861 21.21.003z" fill="#d6f9fa"/></g></svg>