<svg id="Capa_1" enable-background="new 0 0 512 512" height="512" viewBox="0 0 512 512" width="512" xmlns="http://www.w3.org/2000/svg"><g><g><path d="m497 105c-29.5 0-53.5 24-53.5 53.5v29l15-15v-14c0-21.229 17.271-38.5 38.5-38.5 4.142 0 7.5-3.358 7.5-7.5s-3.358-7.5-7.5-7.5z" fill="#83878c"/><path d="m15 105c-4.142 0-7.5 3.358-7.5 7.5s3.358 7.5 7.5 7.5c21.229 0 38.5 17.271 38.5 38.5v14l15 15v-29c0-29.5-24-53.5-53.5-53.5z" fill="#c2c4c6"/><path d="m196 0c-62.033 0-112.5 50.467-112.5 112.5 0 4.142 3.358 7.5 7.5 7.5s7.5-3.358 7.5-7.5c0-53.762 43.738-97.5 97.5-97.5 4.142 0 7.5-3.358 7.5-7.5s-3.358-7.5-7.5-7.5z" fill="#c2c4c6"/><path d="m316 0c-4.142 0-7.5 3.358-7.5 7.5s3.358 7.5 7.5 7.5c53.762 0 97.5 43.738 97.5 97.5 0 4.142 3.358 7.5 7.5 7.5s7.5-3.358 7.5-7.5c0-62.033-50.467-112.5-112.5-112.5z" fill="#83878c"/><path d="m155.894 427.081c-36.475-31.41-57.394-76.999-57.394-125.081v-9.5c0-4.142-3.358-7.5-7.5-7.5s-7.5 3.358-7.5 7.5v9.5c0 52.453 22.819 102.186 62.606 136.447 1.417 1.22 3.158 1.817 4.891 1.817 2.108 0 4.204-.884 5.687-2.606 2.702-3.139 2.349-7.875-.79-10.577z" fill="#c2c4c6"/><path d="m421 285c-4.142 0-7.5 3.358-7.5 7.5v9.5c0 48.082-20.919 93.672-57.394 125.081-3.139 2.703-3.492 7.438-.789 10.577 1.483 1.723 3.579 2.606 5.687 2.606 1.733 0 3.474-.597 4.891-1.817 39.786-34.261 62.605-83.994 62.605-136.447v-9.5c0-4.142-3.358-7.5-7.5-7.5z" fill="#83878c"/></g><g><path d="m211 67.5v30h30v-60c-16.5 0-30 13.5-30 30z" fill="#c2c4c6"/><path d="m301 67.5v30h-30v-60c16.5 0 30 13.5 30 30z" fill="#a4a6aa"/><path d="m286 82.5h-30v60h60v-30c0-16.569-13.431-30-30-30z" fill="#c2c4c6"/><path d="m256 82.5h-30c-16.569 0-30 13.431-30 30v30h90v-30c0-16.569-13.431-30-30-30z" fill="#e1e1e3"/><path d="m398.5 112.5-30 30h30c16.568 0 30-13.431 30-30z" fill="#83878c"/><path d="m398.5 112.5h-142.5v30h112.5c16.568 0 30-13.431 30-30z" fill="#a4a6aa"/><path d="m428.5 172.5-30 30h30c16.568 0 30-13.431 30-30z" fill="#83878c"/><path d="m428.5 172.5h-172.5v30h142.5c16.568 0 30-13.431 30-30z" fill="#a4a6aa"/><path d="m53.5 172.5c0 16.569 13.432 30 30 30h172.5v-30z" fill="#c2c4c6"/><path d="m83.5 112.5c0 16.569 13.432 30 30 30h142.5v-30z" fill="#c2c4c6"/><path d="m398.5 262.5h-30l30 30h30c0-16.569-13.432-30-30-30z" fill="#83878c"/><path d="m113.5 262.5c-16.568 0-30 13.431-30 30h172.5v-30z" fill="#c2c4c6"/><path d="m368.5 262.5h-112.5v30h142.5c0-16.569-13.432-30-30-30z" fill="#a4a6aa"/><path d="m256 112.5v272c62.132 0 112.5-50.368 112.5-112.5v-9.5c0-82.843-50.368-150-112.5-150z" fill="#83878c"/><path d="m338.5 272v-9.5c0-82.843-36.936-150-82.5-150-62.132 0-112.5 67.157-112.5 150v9.5c0 62.132 50.368 112.5 112.5 112.5 45.564 0 82.5-50.368 82.5-112.5z" fill="#a4a6aa"/><g fill="#83878c"><path d="m226 270c-4.142 0-7.5-3.358-7.5-7.5v-15c0-4.142 3.358-7.5 7.5-7.5s7.5 3.358 7.5 7.5v15c0 4.142-3.358 7.5-7.5 7.5z"/><path d="m286 270c-4.142 0-7.5-3.358-7.5-7.5v-15c0-4.142 3.358-7.5 7.5-7.5s7.5 3.358 7.5 7.5v15c0 4.142-3.358 7.5-7.5 7.5z"/><path d="m256 315c-4.142 0-7.5-3.358-7.5-7.5v-15c0-4.142 3.358-7.5 7.5-7.5s7.5 3.358 7.5 7.5v15c0 4.142-3.358 7.5-7.5 7.5z"/></g><path d="m286 512c-4.142 0-7.5-3.358-7.5-7.5v-155.65c0-4.142 3.358-7.5 7.5-7.5s7.5 3.358 7.5 7.5v155.65c0 4.142-3.358 7.5-7.5 7.5z" fill="#62676f"/><path d="m226 512c-4.142 0-7.5-3.358-7.5-7.5v-155.65c0-4.142 3.358-7.5 7.5-7.5s7.5 3.358 7.5 7.5v155.65c0 4.142-3.358 7.5-7.5 7.5z" fill="#83878c"/><path d="m316 512c-4.142 0-7.5-3.358-7.5-7.5v-175.909c0-4.142 3.358-7.5 7.5-7.5s7.5 3.358 7.5 7.5v175.909c0 4.142-3.358 7.5-7.5 7.5z" fill="#62676f"/><path d="m196 512c-4.142 0-7.5-3.358-7.5-7.5v-175.909c0-4.142 3.358-7.5 7.5-7.5s7.5 3.358 7.5 7.5v175.909c0 4.142-3.358 7.5-7.5 7.5z" fill="#83878c"/></g></g></svg>