<svg id="Capa_1" enable-background="new 0 0 504.5 504.5" height="512" viewBox="0 0 504.5 504.5" width="512" xmlns="http://www.w3.org/2000/svg"><g><path d="m490.058 245.029-19.308 9.082-45 152.889 75-60v-95.184c0-5.497-5.718-9.126-10.692-6.787z" fill="#62676f"/><path d="m373.194 300v107h97.556v-152.888z" fill="#83878c"/><path d="m394.391 245.029-116.863 54.971v107h127.556v-155.184c-.001-5.497-5.719-9.126-10.693-6.787z" fill="#a0a2a6"/><path d="m298.724 245.029-116.863 54.971v107h127.556v-155.184c-.001-5.497-5.719-9.126-10.693-6.787z" fill="#83878c"/><path d="m470.75 347-60 75 60 75h22.5c4.142 0 7.5-3.358 7.5-7.5v-142.5z" fill="#c2c4c6"/><path d="m33.75 347 30 150h90l30-15 30 15h125.667l131.333-105v-45z" fill="#e1e1e3"/><path d="m440.75 407-30 37.5 30 52.5h30v-75z" fill="#414851"/><path d="m339.417 422v75h101.333v-90z" fill="#62676f"/><path d="m440.75 392-30 15 30 15h30v-30z" fill="#ff3a33"/><path d="m339.417 392h101.333v30h-101.333z" fill="#fe5e49"/><path d="m213.75 135-30-15-15 30v332l15 15h30v-302l-15-15 15-15z" fill="#a4a6aa"/><path d="m153.75 135v30l15 15-15 15v302h30v-377z" fill="#c2c4c6"/><path d="m183.75 195h30v-30h-30l-15 15z" fill="#ff3a33"/><path d="m153.75 165h30v30h-30z" fill="#fe5e49"/><path d="m63.75 135-30-15-15 30v332l15 15h30v-302l-15-15 15-15z" fill="#a4a6aa"/><path d="m3.75 135v30l15 15-15 15v294.5c0 4.142 3.358 7.5 7.5 7.5h22.5v-377z" fill="#c2c4c6"/><path d="m33.75 195h30v-30h-30l-15 15z" fill="#ff3a33"/><path d="m3.75 165h30v30h-30z" fill="#fe5e49"/><circle cx="485.75" cy="90" fill="#414851" r="7.5"/><circle cx="410.75" cy="135" fill="#62676f" r="7.5"/><circle cx="440.75" cy="165" fill="#83878c" r="7.5"/><circle cx="273.75" cy="150" fill="#62676f" r="7.5"/><circle cx="33.75" cy="30" fill="#62676f" r="7.5"/><circle cx="93.75" cy="195" fill="#62676f" r="7.5"/><g fill="#83878c"><circle cx="123.75" cy="165" r="7.5"/><path d="m93.75 504.5c-4.143 0-7.5-3.358-7.5-7.5v-150c0-4.142 3.357-7.5 7.5-7.5s7.5 3.358 7.5 7.5v150c0 4.142-3.357 7.5-7.5 7.5z"/><path d="m123.75 504.5c-4.143 0-7.5-3.358-7.5-7.5v-150c0-4.142 3.357-7.5 7.5-7.5s7.5 3.358 7.5 7.5v150c0 4.142-3.357 7.5-7.5 7.5z"/><path d="m93.75 369.5h30v15h-30z"/><path d="m93.75 399.5h30v15h-30z"/><path d="m93.75 429.5h30v15h-30z"/><path d="m93.75 459.5h30v15h-30z"/></g><path d="m138.75 0c-24.853 0-45 20.147-45 45-24.853 0-45 20.147-45 45-24.853 0-45 20.147-45 45h60c24.853 0 45-20.147 45-45h180v-90z" fill="#62676f"/><path d="m470.75 0-90 45v45h30c24.853 0 45-20.147 45-45 21.821 0 40.015-15.532 44.129-36.143.917-4.594-2.695-8.857-7.381-8.857z" fill="#62676f"/><path d="m425.75 45c24.853 0 45-20.147 45-45h-182c-24.853 0-45 20.147-45 45-24.853 0-45 20.147-45 45-24.853 0-45 20.147-45 45h60c24.853 0 45-20.147 45-45h122c24.853 0 45-20.147 45-45z" fill="#83878c"/></g></svg>