<svg id="Capa_1" enable-background="new 0 0 497 497" height="512" viewBox="0 0 497 497" width="512" xmlns="http://www.w3.org/2000/svg"><g><path d="m263.5 135h120v60h-120z" fill="#f4de48"/><path d="m113.5 135h240v60h-240z" fill="#fef77d"/><path d="m383.5 180h-30v317h30c24.853 0 45-20.147 45-45v-227c0-24.853-20.147-45-45-45z" fill="#f7be48"/><path d="m398.5 452v-227c0-24.853-20.147-45-45-45h-240c-24.853 0-45 20.147-45 45v227c0 24.853 20.147 45 45 45h240c24.853 0 45-20.147 45-45z" fill="#f4de48"/><path d="m248.5 240v197c54.4 0 98.5-44.1 98.5-98.5s-44.1-98.5-98.5-98.5z" fill="#fffbbe"/><path d="m317 338.5c0-54.4-30.669-98.5-68.5-98.5-54.4 0-98.5 44.1-98.5 98.5s44.1 98.5 98.5 98.5c37.831 0 68.5-44.1 68.5-98.5z" fill="#fff"/><path d="m383.5 90-60-45 30 75h30z" fill="#0f8da5"/><path d="m353.5 60h-210l-30 30v30h240z" fill="#01b1bc"/><path d="m383.5 150h-30v-30h30c8.28 0 15 6.72 15 15s-6.72 15-15 15z" fill="#f7be48"/><path d="m353.5 150c8.28 0 15-6.72 15-15s-6.72-15-15-15h-240c-8.28 0-15 6.72-15 15s6.72 15 15 15z" fill="#f4de48"/><path d="m383.5 90v-82.5c0-4.142-3.358-7.5-7.5-7.5h-22.5l-30 45 30 45z" fill="#01b1bc"/><path d="m353.5 90v-90h-30l-30 45 30 45z" fill="#74dce2"/><path d="m323.5 90v-90h-30l-30 45 30 45z" fill="#adf2f5"/><path d="m293.5 90v-90h-30l-30 45 30 45z" fill="#74dce2"/><path d="m263.5 90v-90h-30l-30 45 30 45z" fill="#adf2f5"/><path d="m233.5 90v-90h-30l-30 45 30 45z" fill="#74dce2"/><path d="m203.5 90v-90h-30l-30 45 30 45z" fill="#adf2f5"/><path d="m173.5 90v-90h-30l-15 45 15 45z" fill="#74dce2"/><path d="m143.5 90v-90h-22.5c-4.142 0-7.5 3.358-7.5 7.5v82.5z" fill="#adf2f5"/><path d="m302 323.5h-30v30h30c8.284 0 15-6.716 15-15s-6.716-15-15-15z" fill="#fef77d"/><path d="m287 338.5c0-8.284-6.716-15-15-15h-77c-8.284 0-15 6.716-15 15s6.716 15 15 15h77c8.284 0 15-6.716 15-15z" fill="#fffbbe"/></g></svg>