<svg id="Capa_1" enable-background="new 0 0 495.483 495.483" height="512" viewBox="0 0 495.483 495.483" width="512" xmlns="http://www.w3.org/2000/svg"><g><path d="m409.067 372.889-27.485 116.81c-.949 4.032-4.987 6.532-9.019 5.583l-22.699-5.342-66.87-131.411h97.79l22.7 5.342c4.033.949 6.532 4.986 5.583 9.018z" fill="#3ac7cf"/><path d="m337.779 348.411h-105l74.08 131.411 43.006 10.118 30.92-131.411z" fill="#74dce2"/><path d="m266.214 0h-30v120l60-75v-15c0-16.57-13.43-30-30-30z" fill="#c2c4c6"/><path d="m266.214 30v90h-82.5l-82.5-75v-15c0-16.57 13.43-30 30-30h105c16.57 0 30 13.43 30 30z" fill="#e1e1e3"/><path d="m296.214 45v75h-82.5l52.5-75z" fill="#736dd9"/><path d="m213.714 45h52.5v75h-52.5z" fill="#928bff"/><path d="m101.214 45h82.5v75h-82.5z" fill="#928bff"/><path d="m339.497 341.11-34.354 146.009c-.949 4.032-4.987 6.532-9.019 5.583l-22.699-5.342-60-160.61h97.79l22.7 5.342c4.031.949 6.53 4.986 5.582 9.018z" fill="#3ac7cf"/><path d="m311.214 326.75-37.79 160.61-117.82-27.72c-40.66-9.56-69.39-45.84-69.39-87.61v-282.03h165z" fill="#74dce2"/><path d="m311.214 120v-30h-30l-15 15v199.69l15 15 30 7.06v-30.82l-15-37.06v-108.87z" fill="#736dd9"/><path d="m311.214 120v175.93l-30-7.06-15-15v-153.87z" fill="#83b3f1"/><path d="m251.214 90v222.63l30 7.06v-229.69z" fill="#928bff"/></g></svg>